<svg width="30" height="30" viewBox="0 0 30 30" fill="none" xmlns="http://www.w3.org/2000/svg">
<g clip-path="url(#clip0)">
<path d="M9.1543 13.125H6.0293C5.5118 13.125 5.0918 12.705 5.0918 12.1875C5.0918 11.67 5.5118 11.25 6.0293 11.25H9.1543C9.6718 11.25 10.0918 11.67 10.0918 12.1875C10.0918 12.705 9.6718 13.125 9.1543 13.125Z" fill="white"/>
<path d="M24.1543 13.125H14.7793C14.2618 13.125 13.8418 12.705 13.8418 12.1875C13.8418 11.67 14.2618 11.25 14.7793 11.25H24.1543C24.6718 11.25 25.0918 11.67 25.0918 12.1875C25.0918 12.705 24.6718 13.125 24.1543 13.125Z" fill="white"/>
<path d="M9.1543 18.125H6.0293C5.5118 18.125 5.0918 17.705 5.0918 17.1875C5.0918 16.67 5.5118 16.25 6.0293 16.25H9.1543C9.6718 16.25 10.0918 16.67 10.0918 17.1875C10.0918 17.705 9.6718 18.125 9.1543 18.125Z" fill="white"/>
<path d="M24.1543 18.125H14.7793C14.2618 18.125 13.8418 17.705 13.8418 17.1875C13.8418 16.67 14.2618 16.25 14.7793 16.25H24.1543C24.6718 16.25 25.0918 16.67 25.0918 17.1875C25.0918 17.705 24.6718 18.125 24.1543 18.125Z" fill="white"/>
<path d="M9.1543 23.125H6.0293C5.5118 23.125 5.0918 22.705 5.0918 22.1875C5.0918 21.67 5.5118 21.25 6.0293 21.25H9.1543C9.6718 21.25 10.0918 21.67 10.0918 22.1875C10.0918 22.705 9.6718 23.125 9.1543 23.125Z" fill="white"/>
<path d="M24.1543 23.125H14.7793C14.2618 23.125 13.8418 22.705 13.8418 22.1875C13.8418 21.67 14.2618 21.25 14.7793 21.25H24.1543C24.6718 21.25 25.0918 21.67 25.0918 22.1875C25.0918 22.705 24.6718 23.125 24.1543 23.125Z" fill="white"/>
<path d="M26.5625 28.75H3.4375C1.54125 28.75 0 27.2088 0 25.3125V4.6875C0 2.79125 1.54125 1.25 3.4375 1.25H26.5625C28.4587 1.25 30 2.79125 30 4.6875V25.3125C30 27.2088 28.4587 28.75 26.5625 28.75ZM3.4375 3.125C2.57625 3.125 1.875 3.82625 1.875 4.6875V25.3125C1.875 26.1738 2.57625 26.875 3.4375 26.875H26.5625C27.4237 26.875 28.125 26.1738 28.125 25.3125V4.6875C28.125 3.82625 27.4237 3.125 26.5625 3.125H3.4375Z" fill="white"/>
<path d="M29.0625 7.5H0.9375C0.42 7.5 0 7.08 0 6.5625C0 6.045 0.42 5.625 0.9375 5.625H29.0625C29.58 5.625 30 6.045 30 6.5625C30 7.08 29.58 7.5 29.0625 7.5Z" fill="white"/>
</g>
<defs>
<clipPath id="clip0">
<rect width="30" height="30" fill="white"/>
</clipPath>
</defs>
</svg>
