<svg width="283" height="38" viewBox="0 0 283 38" fill="none" xmlns="http://www.w3.org/2000/svg">
<path d="M0.84 29V0.999998H18.4V4.44H5.08V13.28H16.12V16.68H5.08V29H0.84ZM40.6388 9.16V29H36.8788L36.5588 25.52C35.9454 26.7467 35.0388 27.72 33.8388 28.44C32.6654 29.1333 31.3054 29.48 29.7588 29.48C27.3588 29.48 25.4654 28.7333 24.0788 27.24C22.7188 25.7467 22.0388 23.52 22.0388 20.56V9.16H26.2388V20.12C26.2388 23.96 27.8121 25.88 30.9588 25.88C32.5321 25.88 33.8254 25.32 34.8388 24.2C35.8788 23.08 36.3988 21.48 36.3988 19.4V9.16H40.6388ZM45.9925 29V9.16H49.7525L50.0725 12.64C50.6858 11.4133 51.5792 10.4533 52.7525 9.76C53.9525 9.04 55.3258 8.68 56.8725 8.68C59.2725 8.68 61.1525 9.42667 62.5125 10.92C63.8992 12.4133 64.5925 14.64 64.5925 17.6V29H60.3925V18.04C60.3925 14.2 58.8192 12.28 55.6725 12.28C54.0992 12.28 52.7925 12.84 51.7525 13.96C50.7392 15.08 50.2325 16.68 50.2325 18.76V29H45.9925ZM78.6263 29.48C76.7063 29.48 75.0129 29.0267 73.5463 28.12C72.0796 27.2133 70.9329 25.9733 70.1063 24.4C69.2796 22.8267 68.8663 21.04 68.8663 19.04C68.8663 17.04 69.2796 15.2667 70.1063 13.72C70.9329 12.1467 72.0796 10.92 73.5463 10.04C75.0396 9.13333 76.7463 8.68 78.6662 8.68C80.2396 8.68 81.6129 8.98667 82.7863 9.6C83.9863 10.2133 84.9196 11.08 85.5863 12.2V0.199999H89.8263V29H86.0263L85.5863 25.92C84.9463 26.8533 84.0663 27.68 82.9463 28.4C81.8263 29.12 80.3863 29.48 78.6263 29.48ZM79.3863 25.8C81.1996 25.8 82.6796 25.1733 83.8263 23.92C84.9996 22.6667 85.5863 21.0533 85.5863 19.08C85.5863 17.08 84.9996 15.4667 83.8263 14.24C82.6796 12.9867 81.1996 12.36 79.3863 12.36C77.5729 12.36 76.0796 12.9867 74.9063 14.24C73.7329 15.4667 73.1463 17.08 73.1463 19.08C73.1463 20.3867 73.4129 21.5467 73.9463 22.56C74.4796 23.5733 75.2129 24.3733 76.1463 24.96C77.1063 25.52 78.1863 25.8 79.3863 25.8ZM95.3322 29V0.999998H100.332L109.812 19.64L119.252 0.999998H124.252V29H120.012V8.32L111.452 25H108.172L99.5722 8.36V29H95.3322ZM132.102 37.8L136.862 27.36H135.702L127.862 9.16H132.462L138.542 23.84L144.902 9.16H149.382L136.582 37.8H132.102Z" fill="#04172A"/>
<path d="M153.028 29V0.999998H157.268V25.64H169.988V29H153.028ZM181.111 29.48C179.431 29.48 178.044 29.2 176.951 28.64C175.858 28.08 175.044 27.3467 174.511 26.44C173.978 25.5067 173.711 24.4933 173.711 23.4C173.711 21.48 174.458 19.96 175.951 18.84C177.444 17.72 179.578 17.16 182.351 17.16H187.551V16.8C187.551 15.2533 187.124 14.0933 186.271 13.32C185.444 12.5467 184.364 12.16 183.031 12.16C181.858 12.16 180.831 12.4533 179.951 13.04C179.098 13.6 178.578 14.44 178.391 15.56H174.151C174.284 14.12 174.764 12.8933 175.591 11.88C176.444 10.84 177.511 10.0533 178.791 9.52C180.098 8.96 181.524 8.68 183.071 8.68C185.844 8.68 187.991 9.41333 189.511 10.88C191.031 12.32 191.791 14.2933 191.791 16.8V29H188.111L187.751 25.6C187.191 26.6933 186.378 27.6133 185.311 28.36C184.244 29.1067 182.844 29.48 181.111 29.48ZM181.951 26.04C183.098 26.04 184.058 25.7733 184.831 25.24C185.631 24.68 186.244 23.9467 186.671 23.04C187.124 22.1333 187.404 21.1333 187.511 20.04H182.791C181.111 20.04 179.911 20.3333 179.191 20.92C178.498 21.5067 178.151 22.24 178.151 23.12C178.151 24.0267 178.484 24.7467 179.151 25.28C179.844 25.7867 180.778 26.04 181.951 26.04ZM196.735 37.8V9.16H200.535L200.975 12.24C201.615 11.3067 202.495 10.48 203.615 9.76C204.735 9.04 206.175 8.68 207.935 8.68C209.855 8.68 211.548 9.13333 213.015 10.04C214.481 10.9467 215.628 12.1867 216.455 13.76C217.308 15.3333 217.735 17.12 217.735 19.12C217.735 21.12 217.308 22.9067 216.455 24.48C215.628 26.0267 214.481 27.2533 213.015 28.16C211.548 29.04 209.841 29.48 207.895 29.48C206.348 29.48 204.975 29.1733 203.775 28.56C202.601 27.9467 201.668 27.08 200.975 25.96V37.8H196.735ZM207.175 25.8C208.988 25.8 210.481 25.1867 211.655 23.96C212.828 22.7067 213.415 21.08 213.415 19.08C213.415 17.7733 213.148 16.6133 212.615 15.6C212.081 14.5867 211.348 13.8 210.415 13.24C209.481 12.6533 208.401 12.36 207.175 12.36C205.361 12.36 203.868 12.9867 202.695 14.24C201.548 15.4933 200.975 17.1067 200.975 19.08C200.975 21.08 201.548 22.7067 202.695 23.96C203.868 25.1867 205.361 25.8 207.175 25.8ZM229.859 29C227.913 29 226.366 28.5333 225.219 27.6C224.073 26.64 223.499 24.9467 223.499 22.52V12.72H220.099V9.16H223.499L224.019 4.12H227.739V9.16H233.339V12.72H227.739V22.52C227.739 23.6133 227.966 24.3733 228.419 24.8C228.899 25.2 229.713 25.4 230.859 25.4H233.139V29H229.859ZM246.483 29.48C244.59 29.48 242.883 29.0533 241.363 28.2C239.87 27.32 238.683 26.1067 237.803 24.56C236.923 22.9867 236.483 21.16 236.483 19.08C236.483 17 236.923 15.1867 237.803 13.64C238.71 12.0667 239.923 10.8533 241.443 10C242.963 9.12 244.657 8.68 246.523 8.68C248.417 8.68 250.11 9.12 251.603 10C253.123 10.8533 254.323 12.0667 255.203 13.64C256.11 15.1867 256.563 17 256.563 19.08C256.563 21.16 256.11 22.9867 255.203 24.56C254.323 26.1067 253.123 27.32 251.603 28.2C250.083 29.0533 248.377 29.48 246.483 29.48ZM246.483 25.84C247.497 25.84 248.43 25.5867 249.283 25.08C250.163 24.5733 250.87 23.8267 251.403 22.84C251.937 21.8267 252.203 20.5733 252.203 19.08C252.203 17.5867 251.937 16.3467 251.403 15.36C250.897 14.3467 250.203 13.5867 249.323 13.08C248.47 12.5733 247.537 12.32 246.523 12.32C245.51 12.32 244.563 12.5733 243.683 13.08C242.83 13.5867 242.137 14.3467 241.603 15.36C241.07 16.3467 240.803 17.5867 240.803 19.08C240.803 20.5733 241.07 21.8267 241.603 22.84C242.137 23.8267 242.83 24.5733 243.683 25.08C244.537 25.5867 245.47 25.84 246.483 25.84ZM261.149 37.8V9.16H264.949L265.389 12.24C266.029 11.3067 266.909 10.48 268.029 9.76C269.149 9.04 270.589 8.68 272.349 8.68C274.269 8.68 275.962 9.13333 277.429 10.04C278.895 10.9467 280.042 12.1867 280.869 13.76C281.722 15.3333 282.149 17.12 282.149 19.12C282.149 21.12 281.722 22.9067 280.869 24.48C280.042 26.0267 278.895 27.2533 277.429 28.16C275.962 29.04 274.255 29.48 272.309 29.48C270.762 29.48 269.389 29.1733 268.189 28.56C267.015 27.9467 266.082 27.08 265.389 25.96V37.8H261.149ZM271.589 25.8C273.402 25.8 274.895 25.1867 276.069 23.96C277.242 22.7067 277.829 21.08 277.829 19.08C277.829 17.7733 277.562 16.6133 277.029 15.6C276.495 14.5867 275.762 13.8 274.829 13.24C273.895 12.6533 272.815 12.36 271.589 12.36C269.775 12.36 268.282 12.9867 267.109 14.24C265.962 15.4933 265.389 17.1067 265.389 19.08C265.389 21.08 265.962 22.7067 267.109 23.96C268.282 25.1867 269.775 25.8 271.589 25.8Z" fill="#FB3F5C"/>
</svg>
