<svg width="30" height="30" viewBox="0 0 30 30" fill="none" xmlns="http://www.w3.org/2000/svg">
<g clip-path="url(#clip0)">
<path d="M14.9998 16.3636C10.4811 16.3636 6.818 12.7005 6.818 8.18182C6.818 3.66313 10.4811 0 14.9998 0C19.5185 0 23.1816 3.66313 23.1816 8.18182C23.1816 12.7005 19.5185 16.3636 14.9998 16.3636Z" fill="white"/>
<path d="M3.35583 20.8024C4.64491 20.1412 6.69836 19.2138 9.15393 18.5512C9.49482 18.4553 9.85437 18.6451 9.97294 18.9794L12.7676 26.776L13.6137 22.5443L12.3073 18.6251C12.2381 18.4174 12.2727 18.1883 12.4019 18.0105C12.5297 17.8328 12.7348 17.7275 12.9545 17.7275L17.0454 17.7275C17.2652 17.7275 17.4702 17.8328 17.5981 18.0105C17.7273 18.1883 17.7619 18.4174 17.6926 18.6251L16.3862 22.5443L17.2323 26.776L20.027 18.9794C20.1455 18.6451 20.5064 18.456 20.846 18.5512C23.3016 19.2138 25.3551 20.1412 26.6441 20.8024C28.7136 21.8651 30 23.9625 30 26.2749V27.273C30 28.7772 28.7762 30.0003 27.2727 30.0003H17.0454H12.9545L2.72723 30.0003C1.22376 30.0003 -6.48499e-05 28.7772 -6.48499e-05 27.273V26.2749C0 23.9625 1.2864 21.8651 3.35583 20.8024Z" fill="white"/>
</g>
<defs>
<clipPath id="clip0">
<rect width="30" height="30" fill="white" transform="matrix(-1 0 0 1 30 0)"/>
</clipPath>
</defs>
</svg>
